<?xml version="1.0" encoding="utf-8"?>
<svg width="28px" height="28px" viewBox="0 0 28 28" version="1.1" xmlns:xlink="http://www.w3.org/1999/xlink" xmlns="http://www.w3.org/2000/svg">
  <desc>Created with Lunacy</desc>
  <g id="Brightness-high" opacity="0.401855469">
    <path d="M1 0C0.4476 0 0 0.53508 0 1.19544L0 4.80456C0 5.46492 0.4476 6 1 6C1.5524 6 2 5.46492 2 4.80456L2 1.19544C2 0.53508 1.5524 0 1 0Z" transform="translate(13 22)" id="Path" fill="#979797" stroke="none" />
    <path d="M1 6C1.5524 6 2 5.46488 2 4.80446L2 1.19554C2 0.535122 1.5524 0 1 0C0.4476 0 0 0.535122 0 1.19554L0 4.80462C0 5.46488 0.4476 6 1 6Z" transform="translate(13 0)" id="Path" fill="#979797" stroke="none" />
    <path d="M2.34898 0.283282L0.283494 2.3483C-0.0943691 2.72614 -0.0944981 3.33862 0.283107 3.71646C0.472039 3.90557 0.719649 4 0.967259 4C1.21474 4 1.46222 3.9057 1.65102 3.71685L3.71651 1.65183C4.09437 1.27399 4.0945 0.661507 3.71689 0.283669C3.33903 -0.0944272 2.72658 -0.0945562 2.34898 0.283282Z" transform="translate(4 20)" id="Path" fill="#979797" stroke="none" />
    <path d="M0.967388 4C1.21487 4 1.46235 3.9057 1.65115 3.71685L3.71651 1.65183C4.09437 1.27399 4.0945 0.661507 3.71689 0.283669C3.33903 -0.0945562 2.72658 -0.0944272 2.34898 0.283282L0.283494 2.3483C-0.0943691 2.72614 -0.0944981 3.33862 0.283107 3.71659C0.472168 3.90557 0.719778 4 0.967388 4Z" transform="translate(20 4)" id="Path" fill="#979797" stroke="none" />
    <path d="M6 1C6 0.4476 5.46495 0 4.80462 0L1.19538 0C0.535051 0 0 0.4476 0 1C0 1.5524 0.535051 2 1.19538 2L4.80462 2C5.46479 2 6 1.55227 6 1Z" transform="translate(0 13)" id="Path" fill="#979797" stroke="none" />
    <path d="M4.80484 0L1.19516 0C0.534952 0 0 0.4476 0 1C0 1.5524 0.534952 2 1.19516 2L4.80484 2C5.46505 2 6 1.5524 6 1C6 0.4476 5.46505 0 4.80484 0Z" transform="translate(22 13)" id="Path" fill="#979797" stroke="none" />
    <path d="M2.34823 3.71658C2.53721 3.90557 2.78476 4 3.03243 4C3.27998 4 3.52766 3.90557 3.71651 3.71671C4.09447 3.33886 4.09447 2.72623 3.71664 2.34852L1.65164 0.28345C1.27368 -0.0945263 0.661066 -0.0943973 0.283489 0.283321C-0.0944749 0.661168 -0.0944749 1.2738 0.28336 1.65152L2.34823 3.71658Z" transform="translate(4 4)" id="Path" fill="#979797" stroke="none" />
    <path d="M1.65164 0.283441C1.27368 -0.0943942 0.661066 -0.0945232 0.283489 0.283312C-0.0944749 0.661147 -0.0944749 1.27376 0.28336 1.65159L2.34823 3.71659C2.53721 3.90557 2.78476 4 3.03243 4C3.27998 4 3.52766 3.90557 3.71651 3.71672C4.09447 3.33889 4.09447 2.72627 3.71664 2.34844L1.65164 0.283441Z" transform="translate(20 20)" id="Path" fill="#979797" stroke="none" />
    <path d="M7.00005 0C3.14024 0 0 3.14022 0 7C0 10.8598 3.14024 14 7.00005 14C10.8599 14 14 10.8598 14 7C14 3.14022 10.8599 0 7.00005 0Z" transform="translate(7 7)" id="Shape" fill="#979797" stroke="none" />
  </g>
</svg>