<?xml version="1.0" encoding="utf-8"?>
<svg width="23px" height="23px" viewBox="0 0 23 23" version="1.1" xmlns:xlink="http://www.w3.org/1999/xlink" xmlns="http://www.w3.org/2000/svg">
  <desc>Created with Lunacy</desc>
  <defs>
    <filter filterUnits="userSpaceOnUse" color-interpolation-filters="sRGB" id="filter_1">
      <feFlood flood-opacity="0" result="BackgroundImageFix" />
      <feBlend mode="normal" in="SourceGraphic" in2="BackgroundImageFix" result="shape" />
      <feColorMatrix in="SourceAlpha" type="matrix" values="0 0 0 0 0 0 0 0 0 0 0 0 0 0 0 0 0 0 127 0" result="hardAlpha" />
      <feOffset dx="0" dy="1" />
      <feGaussianBlur stdDeviation="1.5" />
      <feComposite in2="hardAlpha" operator="arithmetic" k2="-1" k3="1" />
      <feColorMatrix type="matrix" values="0 0 0 0 0 0 0 0 0 0 0 0 0 0 0 0 0 0 0.2 0" />
      <feBlend mode="normal" in2="shape" result="effect0_innerShadow" />
    </filter>
  </defs>
  <g id="Input-value">
    <g filter="url(#filter_1)">
      <path d="M4.999 0L18.001 0Q18.1237 0 18.2463 0.00602151Q18.3689 0.012043 18.491 0.0240715Q18.6131 0.0361001 18.7345 0.0541066Q18.8559 0.0721132 18.9763 0.0960544Q19.0966 0.119996 19.2157 0.149814Q19.3347 0.179632 19.4521 0.215255Q19.5696 0.250879 19.6851 0.292221Q19.8007 0.333564 19.914 0.380526Q20.0274 0.427489 20.1383 0.479957Q20.2493 0.532426 20.3575 0.590276Q20.4657 0.648125 20.571 0.711215Q20.6763 0.774305 20.7783 0.842483Q20.8803 0.910662 20.9789 0.983765Q21.0775 1.05687 21.1723 1.13472Q21.2672 1.21257 21.3581 1.29499Q21.449 1.3774 21.5358 1.46417Q21.6226 1.55095 21.705 1.64188Q21.7874 1.73281 21.8653 1.82767Q21.9431 1.92253 22.0162 2.0211Q22.0893 2.11967 22.1575 2.2217Q22.2257 2.32374 22.2888 2.429Q22.3519 2.53426 22.4097 2.64249Q22.4676 2.75072 22.52 2.86165Q22.5725 2.97259 22.6195 3.08597Q22.6664 3.19934 22.7078 3.31489Q22.7491 3.43043 22.7847 3.54787Q22.8204 3.6653 22.8502 3.78434Q22.88 3.90338 22.9039 4.02374Q22.9279 4.1441 22.9459 4.26549Q22.9639 4.38688 22.9759 4.50901Q22.988 4.63114 22.994 4.75371Q23 4.87628 23 4.999L23 18.001Q23 18.1237 22.994 18.2463Q22.988 18.3689 22.9759 18.491Q22.9639 18.6131 22.9459 18.7345Q22.9279 18.8559 22.9039 18.9763Q22.88 19.0966 22.8502 19.2157Q22.8204 19.3347 22.7847 19.4521Q22.7491 19.5696 22.7078 19.6851Q22.6664 19.8007 22.6195 19.914Q22.5725 20.0274 22.52 20.1383Q22.4676 20.2493 22.4097 20.3575Q22.3519 20.4657 22.2888 20.571Q22.2257 20.6763 22.1575 20.7783Q22.0893 20.8803 22.0162 20.9789Q21.9431 21.0775 21.8653 21.1723Q21.7874 21.2672 21.705 21.3581Q21.6226 21.449 21.5358 21.5358Q21.449 21.6226 21.3581 21.705Q21.2672 21.7874 21.1723 21.8653Q21.0775 21.9431 20.9789 22.0162Q20.8803 22.0893 20.7783 22.1575Q20.6763 22.2257 20.571 22.2888Q20.4657 22.3519 20.3575 22.4097Q20.2493 22.4676 20.1383 22.52Q20.0274 22.5725 19.914 22.6195Q19.8007 22.6664 19.6851 22.7078Q19.5696 22.7491 19.4521 22.7847Q19.3347 22.8204 19.2157 22.8502Q19.0966 22.88 18.9763 22.9039Q18.8559 22.9279 18.7345 22.9459Q18.6131 22.9639 18.491 22.9759Q18.3689 22.988 18.2463 22.994Q18.1237 23 18.001 23L4.999 23Q4.87628 23 4.75371 22.994Q4.63114 22.988 4.50901 22.9759Q4.38688 22.9639 4.26549 22.9459Q4.1441 22.9279 4.02374 22.9039Q3.90338 22.88 3.78434 22.8502Q3.6653 22.8204 3.54787 22.7847Q3.43043 22.7491 3.31489 22.7078Q3.19934 22.6664 3.08597 22.6195Q2.97259 22.5725 2.86165 22.52Q2.75072 22.4676 2.64249 22.4097Q2.53426 22.3519 2.429 22.2888Q2.32374 22.2257 2.2217 22.1575Q2.11967 22.0893 2.0211 22.0162Q1.92253 21.9431 1.82767 21.8653Q1.73281 21.7874 1.64188 21.705Q1.55095 21.6226 1.46417 21.5358Q1.3774 21.449 1.29499 21.3581Q1.21257 21.2672 1.13472 21.1723Q1.05687 21.0775 0.983765 20.9789Q0.910662 20.8803 0.842483 20.7783Q0.774305 20.6763 0.711215 20.571Q0.648125 20.4657 0.590276 20.3575Q0.532426 20.2493 0.479957 20.1383Q0.427489 20.0274 0.380526 19.914Q0.333564 19.8007 0.292221 19.6851Q0.250879 19.5696 0.215255 19.4521Q0.179632 19.3347 0.149814 19.2157Q0.119996 19.0966 0.0960544 18.9763Q0.0721132 18.8559 0.0541066 18.7345Q0.0361001 18.6131 0.0240715 18.491Q0.012043 18.3689 0.00602151 18.2463Q0 18.1237 0 18.001L0 4.999Q0 4.87628 0.00602151 4.75371Q0.012043 4.63114 0.0240715 4.50901Q0.0361001 4.38688 0.0541066 4.26549Q0.0721132 4.1441 0.0960544 4.02374Q0.119996 3.90338 0.149814 3.78434Q0.179632 3.6653 0.215255 3.54787Q0.250879 3.43043 0.292221 3.31489Q0.333564 3.19934 0.380526 3.08597Q0.427489 2.97259 0.479957 2.86165Q0.532426 2.75072 0.590276 2.64249Q0.648125 2.53426 0.711215 2.429Q0.774305 2.32374 0.842483 2.2217Q0.910662 2.11967 0.983765 2.0211Q1.05687 1.92253 1.13472 1.82767Q1.21257 1.73281 1.29499 1.64188Q1.3774 1.55095 1.46417 1.46417Q1.55095 1.3774 1.64188 1.29499Q1.73281 1.21257 1.82767 1.13472Q1.92253 1.05687 2.0211 0.983765Q2.11967 0.910662 2.2217 0.842483Q2.32374 0.774305 2.429 0.711215Q2.53426 0.648125 2.64249 0.590276Q2.75072 0.532426 2.86165 0.479957Q2.97259 0.427489 3.08597 0.380526Q3.19934 0.333564 3.31489 0.292221Q3.43043 0.250879 3.54787 0.215255Q3.6653 0.179632 3.78434 0.149814Q3.90338 0.119996 4.02374 0.0960544Q4.1441 0.0721132 4.26549 0.0541066Q4.38688 0.0361001 4.50901 0.0240715Q4.63114 0.012043 4.75371 0.00602151Q4.87628 0 4.999 0Z" id="Rectangle" fill="#FFFFFF" stroke="none" />
    </g>
    <g id="3" fill="#969696" transform="translate(7 5)">
      <path d="M5.58398 9.82227Q5.58398 10.3906 5.37012 10.8564Q5.15625 11.3223 4.7666 11.6533Q4.37695 11.9844 3.83203 12.166Q3.28711 12.3477 2.63086 12.3477Q1.42969 12.3477 0.720703 11.8906L0.720703 10.8594Q1.57031 11.5273 2.66602 11.5273Q3.10547 11.5273 3.45996 11.416Q3.81445 11.3047 4.06934 11.0938Q4.32422 10.8828 4.46191 10.584Q4.59961 10.2852 4.59961 9.91016Q4.59961 8.26367 2.25586 8.26367L1.55859 8.26367L1.55859 7.44922L2.2207 7.44922Q4.29492 7.44922 4.29492 5.90234Q4.29492 4.47266 2.71289 4.47266Q1.82227 4.47266 1.04297 5.07031L1.04297 4.13867Q1.8457 3.6582 2.95313 3.6582Q3.48047 3.6582 3.9082 3.80469Q4.33594 3.95117 4.64063 4.21484Q4.94531 4.47852 5.1123 4.84766Q5.2793 5.2168 5.2793 5.66211Q5.2793 7.32031 3.60352 7.79492L3.60352 7.81836Q4.03125 7.86523 4.39453 8.02637Q4.75781 8.1875 5.02148 8.44531Q5.28516 8.70313 5.43457 9.05176Q5.58398 9.40039 5.58398 9.82227Z" />
    </g>
  </g>
</svg>