<?xml version="1.0" encoding="UTF-8" standalone="no"?>
<!DOCTYPE svg PUBLIC "-//W3C//DTD SVG 1.1//EN" "http://www.w3.org/Graphics/SVG/1.1/DTD/svg11.dtd">
<!-- Oprettet af Microsoft Visio, SVG-eksport main_background.svg Side-1 -->
<svg xmlns="http://www.w3.org/2000/svg" xmlns:xlink="http://www.w3.org/1999/xlink" xmlns:ev="http://www.w3.org/2001/xml-events"
		xmlns:v="http://schemas.microsoft.com/visio/2003/SVGExtensions/" width="3.50556in" height="7.3667in"
		viewBox="0 0 252.4 530.403" xml:space="preserve" color-interpolation-filters="sRGB" class="st4">
	<v:documentProperties v:langID="1033" v:metric="true" v:viewMarkup="false"/>

	<style type="text/css">
	<![CDATA[
		.st1 {visibility:visible}
		.st2 {fill:#000000;fill-opacity:0.4;filter:url(#filter_3.3333334922791);stroke:none;stroke-linecap:butt}
		.st3 {fill:#ffffff;stroke:none;stroke-linecap:butt;stroke-width:0.75}
		.st4 {fill:none;fill-rule:evenodd;font-size:12px;overflow:visible;stroke-linecap:square;stroke-miterlimit:3}
	]]>
	</style>

	<defs id="Filters">
		<filter id="filter_3.3333334922791">
			<feGaussianBlur stdDeviation="3.3333334922791"/>
		</filter>
	</defs>
	<g v:mID="0" v:index="1" v:groupContext="foregroundPage">
		<title>Side-1</title>
		<v:pageProperties v:drawingScale="1" v:pageScale="1" v:drawingUnits="19" v:shadowOffsetX="9" v:shadowOffsetY="-9"/>
		<g id="shape1-1" v:mID="1" v:groupContext="shape" transform="translate(6.19999,-7.57625)">
			<title>Container</title>
			<g id="shadow1-2" v:groupContext="shadow" v:shadowOffsetX="7.2E-008" v:shadowOffsetY="0" v:shadowType="1"
					v:shadowScale="1.01" transform="matrix(1.01,0,0,1.01,-1.2,-2.72778)" class="st1">
				<path d="M8.6 15.15 L231.4 15.15 C231.54 15.15 231.69 15.16 231.83 15.16 C231.97 15.17 232.11 15.18 232.25 15.19
							 C232.39 15.2 232.53 15.22 232.67 15.24 C232.8 15.25 232.94 15.28 233.08 15.3 C233.22 15.33 233.36 15.35
							 233.49 15.38 C233.63 15.41 233.76 15.45 233.9 15.48 C234.03 15.52 234.17 15.56 234.3 15.6 C234.43 15.65
							 234.56 15.69 234.69 15.74 C234.82 15.79 234.95 15.84 235.08 15.89 C235.21 15.95 235.33 16 235.46 16.06
							 C235.58 16.12 235.7 16.19 235.82 16.25 C235.94 16.32 236.06 16.38 236.18 16.45 C236.3 16.52 236.41 16.6
							 236.52 16.67 C236.64 16.75 236.75 16.82 236.86 16.9 C236.97 16.98 237.07 17.07 237.18 17.15 C237.28
							 17.24 237.38 17.32 237.48 17.41 C237.58 17.5 237.68 17.59 237.77 17.69 C237.87 17.78 237.96 17.88 238.05
							 17.97 C238.14 18.07 238.22 18.17 238.31 18.27 C238.39 18.37 238.47 18.48 238.55 18.58 C238.63 18.69
							 238.7 18.79 238.78 18.9 C238.85 19.01 238.92 19.12 238.98 19.23 C239.05 19.34 239.11 19.46 239.17 19.57
							 C239.23 19.69 239.29 19.8 239.35 19.92 C239.4 20.03 239.45 20.15 239.5 20.27 C239.55 20.39 239.59 20.51
							 239.63 20.63 C239.67 20.75 239.71 20.87 239.74 21 C239.78 21.12 239.81 21.24 239.83 21.37 C239.86 21.49
							 239.89 21.61 239.91 21.74 C239.93 21.86 239.94 21.99 239.96 22.11 C239.97 22.24 239.98 22.37 239.99
							 22.49 C240 22.62 240 22.74 240 22.87 L240 522.68 C240 522.81 240 522.94 239.99 523.06 C239.98 523.19
							 239.97 523.31 239.96 523.44 C239.94 523.57 239.93 523.69 239.91 523.82 C239.89 523.94 239.86 524.07
							 239.83 524.19 C239.81 524.31 239.78 524.44 239.74 524.56 C239.71 524.68 239.67 524.8 239.63 524.92 C239.59
							 525.05 239.55 525.17 239.5 525.28 C239.45 525.4 239.4 525.52 239.35 525.64 C239.29 525.75 239.23 525.87
							 239.17 525.98 C239.11 526.1 239.05 526.21 238.98 526.32 C238.92 526.43 238.85 526.54 238.78 526.65 C238.7
							 526.76 238.63 526.87 238.55 526.97 C238.47 527.08 238.39 527.18 238.31 527.28 C238.22 527.38 238.14
							 527.48 238.05 527.58 C237.96 527.68 237.87 527.77 237.77 527.87 C237.68 527.96 237.58 528.05 237.48
							 528.14 C237.38 528.23 237.28 528.32 237.18 528.4 C237.07 528.49 236.97 528.57 236.86 528.65 C236.75
							 528.73 236.64 528.81 236.52 528.88 C236.41 528.96 236.3 529.03 236.18 529.1 C236.06 529.17 235.94 529.24
							 235.82 529.3 C235.7 529.37 235.58 529.43 235.46 529.49 C235.33 529.55 235.21 529.61 235.08 529.66 C234.95
							 529.72 234.82 529.77 234.69 529.82 C234.56 529.86 234.43 529.91 234.3 529.95 C234.17 529.99 234.03 530.03
							 233.9 530.07 C233.76 530.11 233.63 530.14 233.49 530.17 C233.36 530.2 233.22 530.23 233.08 530.25 C232.94
							 530.28 232.8 530.3 232.67 530.32 C232.53 530.34 232.39 530.35 232.25 530.37 C232.11 530.38 231.97 530.39
							 231.83 530.39 C231.69 530.4 231.54 530.4 231.4 530.4 L8.6 530.4 C8.46 530.4 8.31 530.4 8.17 530.39 C8.03
							 530.39 7.89 530.38 7.75 530.37 C7.61 530.35 7.47 530.34 7.33 530.32 C7.2 530.3 7.06 530.28 6.92 530.25
							 C6.78 530.23 6.64 530.2 6.51 530.17 C6.37 530.14 6.24 530.11 6.1 530.07 C5.97 530.03 5.83 529.99 5.7
							 529.95 C5.57 529.91 5.44 529.86 5.31 529.82 C5.18 529.77 5.05 529.72 4.92 529.66 C4.79 529.61 4.67 529.55
							 4.54 529.49 C4.42 529.43 4.3 529.37 4.18 529.3 C4.06 529.24 3.94 529.17 3.82 529.1 C3.7 529.03 3.59
							 528.96 3.48 528.88 C3.36 528.81 3.25 528.73 3.14 528.65 C3.03 528.57 2.93 528.49 2.82 528.4 C2.72 528.32
							 2.62 528.23 2.52 528.14 C2.42 528.05 2.32 527.96 2.23 527.87 C2.13 527.77 2.04 527.68 1.95 527.58 C1.86
							 527.48 1.78 527.38 1.69 527.28 C1.61 527.18 1.53 527.08 1.45 526.97 C1.37 526.87 1.3 526.76 1.22 526.65
							 C1.15 526.54 1.08 526.43 1.02 526.32 C0.95 526.21 0.89 526.1 0.83 525.98 C0.77 525.87 0.71 525.75 0.65
							 525.64 C0.6 525.52 0.55 525.4 0.5 525.28 C0.46 525.17 0.41 525.05 0.37 524.92 C0.33 524.8 0.29 524.68
							 0.26 524.56 C0.22 524.44 0.19 524.31 0.17 524.19 C0.14 524.07 0.11 523.94 0.09 523.82 C0.07 523.69 0.06
							 523.57 0.04 523.44 C0.03 523.31 0.02 523.19 0.01 523.06 C0 522.94 0 522.81 0 522.68 L0 22.87 C0 22.74
							 0 22.62 0.01 22.49 C0.02 22.37 0.03 22.24 0.04 22.11 C0.06 21.99 0.07 21.86 0.09 21.74 C0.11 21.61 0.14
							 21.49 0.17 21.37 C0.19 21.24 0.22 21.12 0.26 21 C0.29 20.87 0.33 20.75 0.37 20.63 C0.41 20.51 0.46 20.39
							 0.5 20.27 C0.55 20.15 0.6 20.03 0.65 19.92 C0.71 19.8 0.77 19.69 0.83 19.57 C0.89 19.46 0.95 19.34 1.02
							 19.23 C1.08 19.12 1.15 19.01 1.22 18.9 C1.3 18.79 1.37 18.69 1.45 18.58 C1.53 18.48 1.61 18.37 1.69
							 18.27 C1.78 18.17 1.86 18.07 1.95 17.97 C2.04 17.88 2.13 17.78 2.23 17.69 C2.32 17.59 2.42 17.5 2.52
							 17.41 C2.62 17.32 2.72 17.24 2.82 17.15 C2.93 17.07 3.03 16.98 3.14 16.9 C3.25 16.82 3.36 16.75 3.48
							 16.67 C3.59 16.6 3.7 16.52 3.82 16.45 C3.94 16.38 4.06 16.32 4.18 16.25 C4.3 16.19 4.42 16.12 4.54 16.06
							 C4.67 16 4.79 15.95 4.92 15.89 C5.05 15.84 5.18 15.79 5.31 15.74 C5.44 15.69 5.57 15.65 5.7 15.6 C5.83
							 15.56 5.97 15.52 6.1 15.48 C6.24 15.45 6.37 15.41 6.51 15.38 C6.64 15.35 6.78 15.33 6.92 15.3 C7.06
							 15.28 7.2 15.25 7.33 15.24 C7.47 15.22 7.61 15.2 7.75 15.19 C7.89 15.18 8.03 15.17 8.17 15.16 C8.31
							 15.16 8.46 15.15 8.6 15.15 Z" class="st2"/>
			</g>
			<path d="M8.6 15.15 L231.4 15.15 C231.54 15.15 231.69 15.16 231.83 15.16 C231.97 15.17 232.11 15.18 232.25 15.19 C232.39
						 15.2 232.53 15.22 232.67 15.24 C232.8 15.25 232.94 15.28 233.08 15.3 C233.22 15.33 233.36 15.35 233.49 15.38
						 C233.63 15.41 233.76 15.45 233.9 15.48 C234.03 15.52 234.17 15.56 234.3 15.6 C234.43 15.65 234.56 15.69
						 234.69 15.74 C234.82 15.79 234.95 15.84 235.08 15.89 C235.21 15.95 235.33 16 235.46 16.06 C235.58 16.12
						 235.7 16.19 235.82 16.25 C235.94 16.32 236.06 16.38 236.18 16.45 C236.3 16.52 236.41 16.6 236.52 16.67 C236.64
						 16.75 236.75 16.82 236.86 16.9 C236.97 16.98 237.07 17.07 237.18 17.15 C237.28 17.24 237.38 17.32 237.48
						 17.41 C237.58 17.5 237.68 17.59 237.77 17.69 C237.87 17.78 237.96 17.88 238.05 17.97 C238.14 18.07 238.22
						 18.17 238.31 18.27 C238.39 18.37 238.47 18.48 238.55 18.58 C238.63 18.69 238.7 18.79 238.78 18.9 C238.85
						 19.01 238.92 19.12 238.98 19.23 C239.05 19.34 239.11 19.46 239.17 19.57 C239.23 19.69 239.29 19.8 239.35
						 19.92 C239.4 20.03 239.45 20.15 239.5 20.27 C239.55 20.39 239.59 20.51 239.63 20.63 C239.67 20.75 239.71
						 20.87 239.74 21 C239.78 21.12 239.81 21.24 239.83 21.37 C239.86 21.49 239.89 21.61 239.91 21.74 C239.93
						 21.86 239.94 21.99 239.96 22.11 C239.97 22.24 239.98 22.37 239.99 22.49 C240 22.62 240 22.74 240 22.87 L240
						 522.68 C240 522.81 240 522.94 239.99 523.06 C239.98 523.19 239.97 523.31 239.96 523.44 C239.94 523.57 239.93
						 523.69 239.91 523.82 C239.89 523.94 239.86 524.07 239.83 524.19 C239.81 524.31 239.78 524.44 239.74 524.56
						 C239.71 524.68 239.67 524.8 239.63 524.92 C239.59 525.05 239.55 525.17 239.5 525.28 C239.45 525.4 239.4
						 525.52 239.35 525.64 C239.29 525.75 239.23 525.87 239.17 525.98 C239.11 526.1 239.05 526.21 238.98 526.32
						 C238.92 526.43 238.85 526.54 238.78 526.65 C238.7 526.76 238.63 526.87 238.55 526.97 C238.47 527.08 238.39
						 527.18 238.31 527.28 C238.22 527.38 238.14 527.48 238.05 527.58 C237.96 527.68 237.87 527.77 237.77 527.87
						 C237.68 527.96 237.58 528.05 237.48 528.14 C237.38 528.23 237.28 528.32 237.18 528.4 C237.07 528.49 236.97
						 528.57 236.86 528.65 C236.75 528.73 236.64 528.81 236.52 528.88 C236.41 528.96 236.3 529.03 236.18 529.1
						 C236.06 529.17 235.94 529.24 235.82 529.3 C235.7 529.37 235.58 529.43 235.46 529.49 C235.33 529.55 235.21
						 529.61 235.08 529.66 C234.95 529.72 234.82 529.77 234.69 529.82 C234.56 529.86 234.43 529.91 234.3 529.95
						 C234.17 529.99 234.03 530.03 233.9 530.07 C233.76 530.11 233.63 530.14 233.49 530.17 C233.36 530.2 233.22
						 530.23 233.08 530.25 C232.94 530.28 232.8 530.3 232.67 530.32 C232.53 530.34 232.39 530.35 232.25 530.37
						 C232.11 530.38 231.97 530.39 231.83 530.39 C231.69 530.4 231.54 530.4 231.4 530.4 L8.6 530.4 C8.46 530.4
						 8.31 530.4 8.17 530.39 C8.03 530.39 7.89 530.38 7.75 530.37 C7.61 530.35 7.47 530.34 7.33 530.32 C7.2 530.3
						 7.06 530.28 6.92 530.25 C6.78 530.23 6.64 530.2 6.51 530.17 C6.37 530.14 6.24 530.11 6.1 530.07 C5.97 530.03
						 5.83 529.99 5.7 529.95 C5.57 529.91 5.44 529.86 5.31 529.82 C5.18 529.77 5.05 529.72 4.92 529.66 C4.79 529.61
						 4.67 529.55 4.54 529.49 C4.42 529.43 4.3 529.37 4.18 529.3 C4.06 529.24 3.94 529.17 3.82 529.1 C3.7 529.03
						 3.59 528.96 3.48 528.88 C3.36 528.81 3.25 528.73 3.14 528.65 C3.03 528.57 2.93 528.49 2.82 528.4 C2.72 528.32
						 2.62 528.23 2.52 528.14 C2.42 528.05 2.32 527.96 2.23 527.87 C2.13 527.77 2.04 527.68 1.95 527.58 C1.86
						 527.48 1.78 527.38 1.69 527.28 C1.61 527.18 1.53 527.08 1.45 526.97 C1.37 526.87 1.3 526.76 1.22 526.65
						 C1.15 526.54 1.08 526.43 1.02 526.32 C0.95 526.21 0.89 526.1 0.83 525.98 C0.77 525.87 0.71 525.75 0.65 525.64
						 C0.6 525.52 0.55 525.4 0.5 525.28 C0.46 525.17 0.41 525.05 0.37 524.92 C0.33 524.8 0.29 524.68 0.26 524.56
						 C0.22 524.44 0.19 524.31 0.17 524.19 C0.14 524.07 0.11 523.94 0.09 523.82 C0.07 523.69 0.06 523.57 0.04
						 523.44 C0.03 523.31 0.02 523.19 0.01 523.06 C0 522.94 0 522.81 0 522.68 L0 22.87 C0 22.74 0 22.62 0.01 22.49
						 C0.02 22.37 0.03 22.24 0.04 22.11 C0.06 21.99 0.07 21.86 0.09 21.74 C0.11 21.61 0.14 21.49 0.17 21.37 C0.19
						 21.24 0.22 21.12 0.26 21 C0.29 20.87 0.33 20.75 0.37 20.63 C0.41 20.51 0.46 20.39 0.5 20.27 C0.55 20.15
						 0.6 20.03 0.65 19.92 C0.71 19.8 0.77 19.69 0.83 19.57 C0.89 19.46 0.95 19.34 1.02 19.23 C1.08 19.12 1.15
						 19.01 1.22 18.9 C1.3 18.79 1.37 18.69 1.45 18.58 C1.53 18.48 1.61 18.37 1.69 18.27 C1.78 18.17 1.86 18.07
						 1.95 17.97 C2.04 17.88 2.13 17.78 2.23 17.69 C2.32 17.59 2.42 17.5 2.52 17.41 C2.62 17.32 2.72 17.24 2.82
						 17.15 C2.93 17.07 3.03 16.98 3.14 16.9 C3.25 16.82 3.36 16.75 3.48 16.67 C3.59 16.6 3.7 16.52 3.82 16.45
						 C3.94 16.38 4.06 16.32 4.18 16.25 C4.3 16.19 4.42 16.12 4.54 16.06 C4.67 16 4.79 15.95 4.92 15.89 C5.05
						 15.84 5.18 15.79 5.31 15.74 C5.44 15.69 5.57 15.65 5.7 15.6 C5.83 15.56 5.97 15.52 6.1 15.48 C6.24 15.45
						 6.37 15.41 6.51 15.38 C6.64 15.35 6.78 15.33 6.92 15.3 C7.06 15.28 7.2 15.25 7.33 15.24 C7.47 15.22 7.61
						 15.2 7.75 15.19 C7.89 15.18 8.03 15.17 8.17 15.16 C8.31 15.16 8.46 15.15 8.6 15.15 Z" class="st3"/>
		</g>
	</g>
</svg>
